# xmcd
#
# Track frame offsets:
#	150
#	20051
#	43952
#	66926
#	85134
#	108714
#
# Disc length: 1655 seconds
#
# Revision: 0
# Processed by: cddbd v1.5.2PL0 Copyright (c) Steve Scherf et al.
# Submitted via: dBpowerAMP V4.0
#
DISCID=53067506
DTITLE=Lazy Buddies - Blues, Swing and Shuffle
DYEAR=2006
DGENRE=Blues
TTITLE0=Idiot ou bien crétin (Benoit lue Boy)
TTITLE1=He moves me ("she moves me", Johnny Watson)
TTITLE2=Flamenco Dancer (Jimmie Vaughan - P.H Ray)
TTITLE3=He's fifteen ("She's fifteen" Nick Curran)
TTITLE4=Sugar Coated Love (J.D Miller)
TTITLE5=Goombay Rock (A.B Higgs)
EXTD=
EXTT0=
EXTT1=
EXTT2=
EXTT3=
EXTT4=
EXTT5=
PLAYORDER=
